<svg xmlns="http://www.w3.org/2000/svg" width="55.154" height="55.154" viewBox="0 0 55.154 55.154">
  <g>
    <rect width="39" height="39" x="8.077" y="8.077" fill="rgb(153,84,116)" rx="0" ry="0" transform="rotate(45.000016 27.57716447 27.57716447)"/>
    <path fill="rgb(255,255,255)" fill-rule="evenodd" d="M15.74261238 35.16953679c-.04862526.28036464-.10771419.70414302-.1369509 1.12884468-.04308567.6265888.6410533 1.13253773 1.37843384 1.14269364.61858719.00892489 2.16074659.0061551 2.77748725.00061551.43885837-.00369306.87433144-.19665533 1.03898027-.62412677.21850592-.56780765-.26959322-.97250523-.56442234-1.38982077-.39392617-.55765173-.35176376-1.25656293-.17819004-1.8902301.27328628-.9965101.63920676-2.19029105 1.66710786-2.65284654 1.35442896-.6096623 2.16259311-.2812879 3.60319342-.21512062.27051649.01231019 2.88058511.19388553 2.85319493-.2677467.08340156 1.37166323.46070897 2.7328628.42193186 4.102064-.01138693.40162003-.02615916 1.0122056.00553959 1.60494138.03970037.73676503.80416334 1.3153441 1.54185164 1.3153441h2.56636744c.46132448 0 1.10237777-.25266671 1.21440052-.75184503.15787822-.70198874-.47363467-1.04821291-.8337078-1.51261494-.39761923-.51302728-.34837846-1.54031287-.34006908-2.15336047.01046366-.7915454.144337-1.58524507.45147632-2.31739379.15203088-.36161191.35945763-.70937486.58257987-1.03159415 1.00697377-1.45475704 2.0081002-2.6688498 3.83370179-2.99137685 1.34488856-.23758672 2.77564072-.21019654 4.02604855-.82601394.67582958-.33268295 1.14577119-.89218122 1.3153441-1.64064094.3963882-1.74897064-1.93239252-1.04298108-2.22352857-2.44634306-.2009639-.96819666-.96419585-1.724658-1.91608151-1.96901533-.32529685-.08370931-.6641349-.0960195-.99004726-.17111168-.53733991-.1240252-.66598142-.7315332-.80631762-1.1750079-.13171907-.41516125-.25635977-1.11191817-.75369156-1.22732622-.9072612-.2105043-1.0475974.95311667-1.28764616 1.50522882-.82662945 1.9025403-3.9691139 2.12812458-5.71962332 2.1484364-1.99609776.0230816-3.53548737-.58596518-5.53527818-.75030626-1.85083749-.15203088-4.99793827-.064013-6.74752442 2.11889194C15.56165255 24.0118858 15 26.73274617 15.48409833 28.96704616c.42531716 1.9603982.60042965 4.2334753.25851405 6.20249063z"/>
    <path fill="rgb(91,5,83)" fill-rule="evenodd" d="M18.4228363 46l9.1543274 9.1543274L36.73149109 46H18.4228363z"/>
  </g>
</svg>
