<svg xmlns="http://www.w3.org/2000/svg" width="38" height="38" viewBox="0 0 38 38">
  <g>
    <rect width="38" height="38" x="0" y="0" fill="none"/>
    <g>
      <path fill="rgb(255,255,255)" fill-rule="evenodd" d="M13.09423349 25.0475847c-.54490853 0-.98664416.44173564-.98664416.98664416 0 .54490853.44173563.98664416.98664416.98664416.54490852 0 .98664416-.44173563.98664416-.98664416-2e-8-.54490854-.44173566-.98664417-.98664418-.98664416h2e-8z"/>
      <path fill="rgb(255,255,255)" fill-rule="evenodd" d="M31.97427368 10.59910583c-.19332886-.15960693-.44802856-.22406005-.69400024-.17558288l-.83615113.15049744c-4.7934265.91290283-9.71942138.8759613-14.4986267-.10870362-.68060303-1.1722107-2.00143433-1.81773376-3.34448243-1.63450622-1.3430481.18322754-2.44268798 1.1589508-2.78442382 2.47065735-.06719971.1118164-.1072693.23780822-.11706543.3678894v14.21437073c.01193237 1.40220642.89730835 2.6481018 2.21755981 3.12055969 1.32028198.47245789 2.79507446.07115173 3.6939392-1.00512695 2.58489991.54377746 5.21826173.82392883 7.8597107.83613586 2.45480347.00045776 4.90423584-.2290802 7.31622315-.68563843l.8361206-.15885925c.3989563-.07713318.68466187-.42988586.67727661-.83613586V11.26802063c.00198365-.26171875-.11868286-.50926209-.32608032-.6689148zM10.95370483 12.0874176c0-.46177673.37435913-.83613586.83615113-.83613586.46176147 0 .8361206.37435913.8361206.83613586v7.5252533c0 .461792-.37435913.83613586-.8361206.83613586-.461792 0-.83615113-.37434387-.83615113-.83613586v-7.5252533zm-.15884399 13.94680786c0 1.26991272 1.02947998 2.2993927 2.29937744 2.2993927 1.26800537-.0045929 2.2947998-1.03137207 2.29937744-2.2993927 0-1.26991272-1.02944946-2.29937744-2.29937744-2.29937744-1.26989746 0-2.29937744 1.02946472-2.29937744 2.29937744z"/>
    </g>
  </g>
</svg>
