<svg xmlns="http://www.w3.org/2000/svg" width="55.154" height="55.154" viewBox="0 0 55.154 55.154">
  <g>
    <rect width="39" height="39" x="8.077" y="8.077" fill="rgb(51,153,255)" rx="0" ry="0" transform="rotate(45.000016 27.57716447 27.57716447)"/>
    <g>
      <path fill="rgb(255,255,255)" fill-rule="evenodd" d="M19.39472482 32.8159086c-.54490852 0-.98664416.44173564-.98664416.98664416s.44173564.98664416.98664416.98664416.98664416-.44173564.98664416-.98664416c-1e-8-.54490854-.44173566-.98664417-.98664418-.98664416h2e-8z"/>
      <path fill="rgb(255,255,255)" fill-rule="evenodd" d="M38.27475835 18.36742566c-.19331634-.15960527-.44805196-.22405468-.69400976-.17558844l-.83613911.1505053c-4.7934339.91289407-9.71945381.87596149-14.49864925-.10869899-.68061336-1.17222593-2.00142125-1.81774074-3.34447992-1.63451635-1.34303315.18322758-2.44268571 1.15895713-2.78440859 2.47065547-.0671861.11182162-.10729873.2378147-.11707172.36790006v14.21436501c.01191641 1.40220693.89730323 2.64809709 2.21757526 3.120556 1.32024652.47245893 2.79507467.07116038 3.69393443-1.00512505 2.58489162.54378515 5.21826544.82392926 7.8597026.83613912 2.45480627.00046568 4.90425397-.22908472 7.31621729-.68563383l.83613911-.15886209c.39893186-.07713771.68467056-.42989028.67727065-.83613912V19.03633632c.00199032-.2617177-.11870481-.50926392-.32608099-.66891066zm-21.02054967 1.48832661c0-.46178645.37435904-.83613911.83613911-.83613911.46178008 0 .83613912.37435266.83613912.83613911v7.52525207c0 .46178645-.37435904.83613911-.83613912.83613911-.46178007 0-.83613911-.37435266-.83613911-.83613911v-7.52525207zm-.15886848 13.94680075c0 1.26991435 1.02948098 2.29938257 2.29938258 2.29938257 1.26801334-.00458667 2.29478952-1.03137242 2.29938257-2.29938257 0-1.26991436-1.02948098-2.29938258-2.29938257-2.29938258-1.2699016 0-2.29938258 1.02946822-2.29938258 2.29938258z"/>
    </g>
    <path fill="rgb(9,48,87)" fill-rule="evenodd" d="M18.42285156 46l9.1543274 9.1543274L36.73150635 46H18.42285156z"/>
  </g>
</svg>
