<svg xmlns="http://www.w3.org/2000/svg" width="55.154" height="55.154" viewBox="0 0 55.154 55.154">
  <g>
    <rect width="39" height="39" x="8.077" y="8.077" fill="rgb(7,146,76)" rx="0" ry="0" transform="rotate(45.000016 27.57716447 27.57716447)"/>
    <path fill="rgb(255,255,255)" fill-rule="evenodd" d="M24.87591553 46.138443c-.00134278.00054168-.00262451.00107574-.00396729.00161742 0 0-.79553222-2.21313476-1.47161865-3.88648986-2.01989746-5.96201325-2.00091553-6.915802-2.72320557-11.97188568-1.0482788-.2770691-1.87628173-1.15994263-2.02514648-2.30010224-.02288818-.1721878-.5546875-4.2678566-.64208984-7.99637604-.02600098-1.13895797.6453247-2.13311767 1.62390136-2.5764656-.02246094-1.51184845.00793457-2.38861084.00952149-2.43058396.02471924-.59041595.5234375-1.05030822 1.11541748-1.02728653.59179687.02261734 1.05181884.52026368 1.02825927 1.11116791-.00183105.0401764-.02990722.86375427-.00994873 2.29061508 1.00201416.39220047 1.7206421 1.35439682 1.74768067 2.49580765.07977295 3.43756485.59033203 7.3722496.59588623 7.41083908.14709473 1.12282181-.40667725 2.17448425-1.32226563 2.72203446.7401123 5.17406845 1.03533936 7.34401321 2.9663086 12.58333969.79364013-3.07157898 1.80419922-6.67580414 2.96276855-10.13040543-.83947754-.67293548-1.24023437-1.80565262-.92510986-2.9035759.23706055-.82971572 1.53466797-5.08048248 3.7666626-7.30671691.58306884-.58177186 1.36120605-.84601593 2.12432861-.79801178.5322876-.74339676 1.0734253-1.34719086 1.61938477-1.77085877.46783447-.36244965 1.14227294-.27789307 1.50506591.18805313.3637085.4663887.28027344 1.13888169-.18847656 1.50221253-.33233642.25807571-.6673584.6156845-1.0045166 1.04991912.91760254 1.0811882.86682129 2.70143128-.1553955 3.72096253-.90966798.90811157-1.94818116 3.47653961-2.3635254 4.92678451-.30981445 1.08427048-1.23095703 1.82502747-2.28411865 1.96683884-1.02130127 3.0537529-1.96276856 6.3109703-2.7576294 9.30438614 3.4307251-5.3839264 7.53326416-10.19223785 11.27874756-10.19223785.16906739 0 .30633545.1365242.30633545.30563736 0 .16911697-.13684082.30607986-.30633545.30607986-3.11566162 0-4.98791504 7.39920807-6.79223633 12.86547852-.08605957-.00572205-.16864013-.02069855-.25775146-.02069855-1.83874512 0-3.06488037 1.22344208-4.90362549 1.22344208-.94677734 0-1.7310791-.32369996-2.51934814-.63814545.00201416-.00845337.00402832-.01690674.00604248-.02537537z"/>
    <path fill="rgb(12,91,23)" fill-rule="evenodd" d="M18.42285156 46l9.1543274 9.1543274L36.73150635 46H18.42285156z"/>
  </g>
</svg>
