<svg xmlns="http://www.w3.org/2000/svg" width="38" height="38" viewBox="0 0 38 38">
  <g>
    <rect width="38" height="38" x="0" y="0" fill="none"/>
    <path fill="rgb(255,255,255)" fill-rule="evenodd" d="M19.04675293 34.76243973c-.00134277.00054168-.00262451.00107574-.00396729.00161743 0 0-.79553222-2.21313477-1.47161865-3.88648987-2.01989746-5.96201324-2.00091553-6.91579819-2.72320556-11.97188568-1.04827881-.2770691-1.87628174-1.15994263-2.02514649-2.30010223-.02288818-.1721878-.5546875-4.2678566-.64208984-7.99637604-.02600098-1.13895798.6453247-2.13311768 1.62390136-2.5764656-.02246093-1.51184846.00793458-2.38861085.00952149-2.43058396.02471924-.59041596.5234375-1.05030823 1.11541748-1.02728653.59179687.02261734 1.05181885.52026367 1.02825928 1.1111679-.00183106.0401764-.02990723.86375428-.00994873 2.29061509 1.00201416.39220047 1.72064209 1.35439682 1.74768066 2.49580765.07977295 3.43756485.59033203 7.3722496.59588623 7.41083908.14709473 1.1228218-.40667725 2.17448425-1.32226562 2.72203445.7401123 5.17406845 1.03533935 7.34401322 2.96630859 12.5833397.79364014-3.07157899 1.80419922-6.67580796 2.96276855-10.13040543-.83947753-.67293549-1.24023437-1.80565262-.92510986-2.9035759.23706055-.82971573 1.53466797-5.08048248 3.7666626-7.30671692.58306885-.58177185 1.36120605-.84601593 2.12432861-.79801178.5322876-.74339676 1.0734253-1.34719086 1.61938477-1.77085876.46783447-.36244965 1.14227295-.27789307 1.50506592.18805313.3637085.4663887.28027343 1.13888168-.18847657 1.50221252-.33233642.25807572-.6673584.61568451-1.0045166 1.04991913.91760254 1.0811882.8668213 2.70143127-.1553955 3.72096252-.90966797.90811158-1.94818116 3.47653962-2.3635254 4.92678452-.30981445 1.08427048-1.23095703 1.82502746-2.28411865 1.96683884-1.02130127 3.0537529-1.96276855 6.3109703-2.7576294 9.30438613 3.4307251-5.38392639 7.53326417-10.19223785 11.27874756-10.19223785.16906739 0 .30633545.1365242.30633545.30563736 0 .16911697-.13684082.30607986-.30633545.30607986-3.11566162 0-4.98791503 7.39920807-6.79223632 12.86547852-.08605957-.00572205-.16864014-.02069855-.25775147-.02069855-1.83874512 0-3.06488037 1.22344208-4.90362549 1.22344208-.94677734 0-1.7310791-.32369995-2.51934814-.63814545.00201416-.00845337.00402832-.01690673.00604248-.02537536z"/>
  </g>
</svg>
