<svg xmlns="http://www.w3.org/2000/svg" width="38" height="38" viewBox="0 0 38 38">
  <g>
    <rect width="38" height="38" x="0" y="0" fill="none"/>
    <path fill="rgb(255,255,255)" fill-rule="evenodd" d="M33.31759644 13.56998825c-.37600708-.95689773-.85818482-1.86061096-1.43200684-2.69660187-3.87536621-.26262283-7.59750366 1.72566605-9.59521484 5.05518723-.12860108-.12857056-.25717163-.19285584-.3857422-.25714111 2.05349732-3.29636765 2.0628357-7.3649521.21896363-10.60202408C21.67111206 5.02351379 21.21203613 5 20.74752808 5c-.68011475 0-1.34854126.0504036-2.00177002.14767075-1.8239441 3.26472473-1.7227478 7.2987175.26602173 10.52376175-.06427002 0-.12857056.06428527-.12857056.06428527-1.5800476-3.3707962-4.7998352-5.61966705-8.45736694-5.93349075-.79238892.9391594-1.45907593 1.98778534-1.973938 3.11981201 1.78552247 3.20357132 5.18719483 5.26835633 9.01702882 5.32081986v.45000076C13.77337646 18.32850647 10.16210938 19.98703385 8 22.95187759c.42593384 1.21819687 1.02166748 2.35695649 1.75878906 3.38785172 3.68258667-.03255081 7.17825318-2.03367996 8.99584961-5.46115875.12857056.12857437.32144165.19285965.4500122.25714492-2.17227172 3.17892838-2.37957763 7.31851578-.6218872 10.69131852C19.2876587 31.9408493 20.0107422 32 20.74752807 32c.48114014 0 .95648194-.02522278 1.42468262-.07442474 1.81155396-3.3504181 1.65194702-7.53512955-.58898925-10.78985978.06427002-.06428527.12857055-.06428527.19284057-.12857055 1.54608154 3.80995941 5.1789856 6.24452972 9.1062317 6.40750122.68157958-.77411652 1.27593993-1.62682343 1.76766967-2.54270172-1.70022583-3.59777832-5.37832642-5.92194367-9.3953247-5.92194367 0-.12857055.06430053-.25714111.06430053-.38571548 4.1267395.39036941 7.96322632-1.63810349 9.99865723-4.99429703z"/>
  </g>
</svg>
