<svg xmlns="http://www.w3.org/2000/svg" width="55.154" height="55.154" viewBox="0 0 55.154 55.154">
  <g>
    <rect width="39" height="39" x="8.077" y="8.077" fill="rgb(161,173,254)" rx="0" ry="0" transform="rotate(45.000016 27.57716447 27.57716447)"/>
    <path fill="rgb(255,255,255)" fill-rule="evenodd" d="M40.23596486 22.64717724c-.37600708-.95690918-.85818917-1.86063276-1.43202863-2.69663348-3.87534877-.26260266-7.5974775 1.7256824-9.59518433 5.05519213-.12857927-.12856946-.25715855-.1928591-.38573782-.25714383 2.05346243-3.29635947 2.06284005-7.364945.21898106-10.60201264-.45251901-.04590225-.91159058-.06941495-1.37611607-.06941495-.68011257 0-1.34853254.05039978-2.00174823.14766802-1.82392665 3.26471982-1.72273472 7.29871804.2660261 10.52375957-.06427003 0-.12855966.06428473-.12855966.06428473-1.58006941-3.37079675-4.7998679-5.61966869-8.4573931-5.9334902-.79238892.93915448-1.45908247 1.98777498-1.9739489 3.11979348 1.78551375 3.20357894 5.18721445 5.26837594 9.01704843 5.32084056v.45000294c-3.69556536-.36435372-7.30684988 1.29418455-9.46893964 4.25904628.42593602 1.2181827 1.02166966 2.35693523 1.75879342 3.38782066 3.68259757-.0325421 7.178251-2.03367234 8.9958605-5.46115658.12857929.12857437.32142858.1928591.45000786.25714384-2.17227173 3.17892838-2.3795602 7.31851796-.62188503 10.6913256.70487104.11380659 1.427948.1729611 2.16473825.1729611.48116193 0 .95647757-.02522442 1.42469133-.07442747 1.81156704-3.3504181 1.65199062-7.5351301-.5889849-10.78985923.06430926-.06428473.12857928-.06428473.1928493-.12856947 1.54609026 3.8099556 5.17895508 6.24452591 9.10621425 6.40750123.68158395-.77412906 1.27590506-1.62684468 1.76766096-2.5427317-1.70025199-3.59775761-5.3783177-5.92191533-9.3952724-5.92191533 0-.12856946.06427003-.25713893.06427003-.3857133 4.1267395.39036778 7.96320452-1.63809095 9.99865722-4.99427196z"/>
    <path fill="rgb(12,17,57)" fill-rule="evenodd" d="M18.42285156 46l9.1543274 9.1543274L36.73150635 46H18.42285156z"/>
  </g>
</svg>
