<svg xmlns="http://www.w3.org/2000/svg" width="38" height="38" viewBox="0 0 38 38">
  <g>
    <rect width="38" height="38" x="0" y="0" fill="none"/>
    <g>
      <path fill="rgb(255,255,255)" fill-rule="evenodd" d="M13.2645733 16.89667656H9.4109271c-1.14174695 0-2.10332343.98426462-2.10332343 2.1486997 0 1.1644351.96157648 2.14869971 2.10332343 2.14869971h3.8536462v-4.2973994z"/>
      <path fill="rgb(255,255,255)" fill-rule="evenodd" d="M22.93238738 27.7376006H15.0749529c-1.17177536.01534785-2.12601157.96891675-2.12601157 2.1486997 0 1.18712322.96157649 2.1486997 2.1486997 2.1486997h7.81272551c1.18712322 0 2.1486997-.96157648 2.1486997-2.1486997-.0006673-1.17978295-.9549035-2.13335185-2.12667886-2.1486997z"/>
      <path fill="rgb(255,255,255)" fill-rule="evenodd" d="M23.66908442 22.60541133c.74337002 0 1.35194583-.60857581 1.35194583-1.35995341v-5.85153655h.7513776c1.18712322 0 2.15603998-.96157648 2.15603998-2.1486997 0-1.18712323-.96891676-2.1486997-2.15603998-2.1486997h-13.5441484c-1.18712323 0-2.1486997.96157647-2.1486997 2.1486997 0 1.18712322.96157647 2.1486997 2.1486997 2.1486997h2.53906905v7.60185932c0 .76605816.62325638 1.38998183 1.38998183 1.38998183.77339843 0 1.3973221-.62325638 1.3973221-1.38998183v-2.32887018c0-1.30723686 1.06700958-2.37357914 2.38158673-2.37357914 1.30723687 0 2.37357914 1.06700957 2.37357914 2.37357914v.57854741c-.0006673.7520449.60790852 1.35995341 1.35928612 1.35995341z"/>
      <path fill="rgb(255,255,255)" fill-rule="evenodd" d="M26.38031637 22.69616387h-.26291543c-.49580245.84146283-1.40466238 1.41200266-2.44898382 1.41200266-1.57749258 0-2.86204131-1.28454874-2.86204131-2.86204131v-.5785474c0-.4804546-.39036936-.87149125-.87149125-.87149125-.48846217 0-.87883152.39036935-.87883152.87149124V22.996448c0 1.59284043-1.2998966 2.89206972-2.89941 2.89206972-1.59284044 0-2.89206973-1.29989659-2.89206973-2.89206972v-.30028412h-1.6375494c-.91620022.26291543-1.54746417 1.09703798-1.54746417 2.05861447 0 1.18712322.96891676 2.1486997 2.15603998 2.1486997H25.6522942c1.00628546 0 2.07329503-.82611498 2.23878494-1.7429825.20219131-1.11238583-.4437532-2.15670727-1.51076277-2.46433167z"/>
      <path fill="rgb(255,255,255)" fill-rule="evenodd" d="M28.59641318 16.89667656h-2.07329503v4.28939183c.01534786 0 .03002841 0 .04537627.00734028h2.02791876c1.1570948 0 2.09598315-.96157648 2.09598315-2.1486997 0-1.17911565-.93888834-2.1480324-2.09598315-2.1480324z"/>
      <path fill="rgb(255,255,255)" fill-rule="evenodd" d="M18.33603845 5.965h-3.23839741c-1.18712322 0-2.1486997.96157648-2.1486997 2.1486997 0 1.17911565.96157648 2.1486997 2.1486997 2.1486997h7.8127255c1.18712322 0 2.1486997-.96891675 2.1486997-2.1486997 0-1.18712322-.96157648-2.1486997-2.1486997-2.1486997H18.33603844z"/>
    </g>
  </g>
</svg>
