<svg xmlns="http://www.w3.org/2000/svg" width="55.154" height="55.154" viewBox="0 0 55.154 55.154">
  <g>
    <rect width="39" height="39" x="8.077" y="8.077" fill="rgb(238,191,56)" rx="0" ry="0" transform="rotate(45.000016 27.57716447 27.57716447)"/>
    <path fill="rgb(79,61,12)" fill-rule="evenodd" d="M18.4228363 46l9.1543274 9.1543274L36.73149109 46H18.4228363z"/>
    <g>
      <path fill="rgb(255,255,255)" fill-rule="evenodd" d="M21.95696964 24.93167656h-3.8536462C16.96157648 24.93167656 16 25.91594118 16 27.08037626c0 1.1644351.96157648 2.14869971 2.10332344 2.14869971h3.8536462v-4.2973994z"/>
      <path fill="rgb(255,255,255)" fill-rule="evenodd" d="M31.62478371 35.7726006h-7.85743447c-1.17177537.01534785-2.12601157.96891675-2.12601157 2.1486997 0 1.18712322.96157648 2.1486997 2.1486997 2.1486997h7.8127255c1.18712323 0 2.1486997-.96157648 2.1486997-2.1486997-.00066729-1.17978295-.9549035-2.13335185-2.12667886-2.1486997z"/>
      <path fill="rgb(255,255,255)" fill-rule="evenodd" d="M32.36148075 30.64041133c.74337002 0 1.35194584-.60857581 1.35194584-1.35995341v-5.85153655h.7513776c1.18712322 0 2.15603998-.96157648 2.15603998-2.1486997 0-1.18712323-.96891676-2.1486997-2.15603998-2.1486997H20.92065578c-1.18712322 0-2.1486997.96157647-2.1486997 2.1486997 0 1.18712322.96157648 2.1486997 2.1486997 2.1486997h2.53906906v7.60185932c0 .76605816.62325637 1.38998183 1.38998183 1.38998183.77339843 0 1.3973221-.62325638 1.3973221-1.38998183v-2.32887018c0-1.30723686 1.06700957-2.37357914 2.38158672-2.37357914 1.30723687 0 2.37357914 1.06700957 2.37357914 2.37357914v.57854741c-.0006673.7520449.60790852 1.35995341 1.35928612 1.35995341z"/>
      <path fill="rgb(255,255,255)" fill-rule="evenodd" d="M35.0727127 30.73116387h-.26291542c-.49580245.84146283-1.40466239 1.41200266-2.44898383 1.41200266-1.57749257 0-2.8620413-1.28454874-2.8620413-2.86204131v-.5785474c0-.4804546-.39036937-.87149125-.87149126-.87149125-.48846216 0-.87883152.39036935-.87883152.87149124V31.031448c0 1.59284043-1.29989659 2.89206972-2.89941 2.89206972-1.59284043 0-2.89206973-1.29989659-2.89206973-2.89206972v-.30028412h-1.6375494c-.91620021.26291543-1.54746416 1.09703798-1.54746416 2.05861447 0 1.18712322.96891676 2.1486997 2.15603998 2.1486997h13.41669448c1.00628545 0 2.07329502-.82611498 2.23878494-1.7429825.2021913-1.11238583-.4437532-2.15670727-1.51076277-2.46433167z"/>
      <path fill="rgb(255,255,255)" fill-rule="evenodd" d="M37.28880951 24.93167656H35.2155145v4.28939183c.01534785 0 .03002841 0 .04537626.00734028h2.02791876c1.15709481 0 2.09598316-.96157648 2.09598316-2.1486997 0-1.17911565-.93888835-2.1480324-2.09598316-2.1480324z"/>
      <path fill="rgb(255,255,255)" fill-rule="evenodd" d="M27.02843478 14h-3.2383974c-1.18712323 0-2.14869971.96157648-2.14869971 2.1486997 0 1.17911565.96157648 2.1486997 2.1486997 2.1486997h7.8127255c1.18712323 0 2.1486997-.96891675 2.1486997-2.1486997 0-1.18712322-.96157647-2.1486997-2.1486997-2.1486997h-4.57432809z"/>
    </g>
  </g>
</svg>
