<svg xmlns="http://www.w3.org/2000/svg" width="55.154" height="55.154" viewBox="0 0 55.154 55.154">
  <g>
    <rect width="39" height="39" x="8.077" y="8.077" fill="rgb(26,26,26)" rx="0" ry="0" transform="rotate(45.000016 27.57716447 27.57716447)"/>
    <path fill="rgb(255,255,255)" fill-rule="evenodd" d="M27.21591948 19.00004728c-.26079535.00387694-.46911013.21836173-.46537503.47915708v2.8973413c-.00241127.17036092.08711303.32881915.23424775.41469108.14713472.08588375.3291383.08588375.47627301 0 .14713472-.08587193.23663538-.24433016.23424775-.41469108v-2.8973413c.00182027-.12767908-.0481072-.25065383-.1384116-.34092278-.09030441-.09025713-.21332644-.1401255-.34098188-.1382343zm-2.97891077.85039803c-.14994787-.00347506-.29261465.06445418-.38445565.1830319-.091841.11857773-.12191095.27371456-.08103757.41802432l.44998545 1.67914191c.04151166.16545565.16900163.29569966.33353531.34072185.1645337.04502218.34058-.00215123.46055249-.1234239.11997248-.12127268.16524288-.29780362.11843588-.46185269l-.44998544-1.67914191c-.05203142-.20576167-.23486239-.35157256-.44703047-.35650148zm5.52480953.35685607c.05503368-.2177471.25576005-.36664299.48012631-.35613505.14401426.00672555.27710688.07885088.36135948.19586837.0842526.11700567.1104456.26609069.07115609.40482142l-.44998545 1.6791301c-.04151166.16546747-.16900163.29569966-.33353531.34072185-.1645337.045034-.34058-.00215124-.46055249-.12342391-.11997248-.12127267-.16524288-.2978036-.11843588-.46184086l.44986725-1.67914192zm-8.87633235.04391111c-.166614.00643006-.31748383.10020953-.39700844.24675325-.07952462.14654373-.07590771.32415028.00950324.46733714l1.44862928 2.50925692c.0830706.14876587.23982676.24126879.4101995.24208437.17039638.00080375.32802721-.09019803.4125162-.23817197.084489-.14796212.08273965-.32996569-.0045625-.47629666l-1.44860563-2.5092451c-.08666386-.15517228-.25308874-.24857352-.43067165-.24171795zm12.24435582.24195435c.08420532-.15069252.24389282-.2434673.41651135-.24196617.16923803.0014775.32474128.09336578.40767004.24087874.0829524.14750114.08065933.32810996-.00600454.47347169l-1.44862928 2.5092451c-.08434715.14624822-.2403232.23636351-.4091357.23639897-.16883615.00002364-.32483583-.09003255-.4092539-.23624532-.08439444-.14621276-.08434716-.32634878.00009455-.47252609l1.44874748-2.50925692zm2.50490718 2.16658479c.08557643-.08803498.2020502-.1392981.32476491-.14293864.19474548-.00576814.37306122.1086135.44901621.28802851.075955.17940318.03399418.38705604-.10569398.52287907l-1.22927467 1.22927467c-.11845952.12345937-.29441128.17322135-.46000876.13006672-.16557385-.04314281-.29488408-.17244123-.3380269-.33801508-.04314281-.16558566.00661917-.34154923.13006672-.46000876l1.22915647-1.22928649zm-17.16256558-.14295046c-.19223964.00010638-.36526005.11668653-.43752722.2948368-.07226717.17813845-.0293844.38230442.10845985.516319l1.22915647 1.2292865c.11871956.12233646.2941276.17122377.45899225.12793912.16488828-.04328466.2936548-.17202754.3369631-.336904.04330829-.16486465-.00555538-.3402845-.1278682-.4590159l-1.22927468-1.22927466c-.08898057-.09155732-.21122248-.1432105-.33890157-.14318686zm5.68917773 1.5269719c-.53612923.00009456-1.00928178.35034328-1.16594338.86306902q-.0082976-.00044916-.01659521-.00078012c-.59957872.00075648-1.1096095.43726718-1.20296346 1.02951753-.2313164-.27620856-.57291292-.4359788-.93318496-.43646342-.3233938-.00002364-.63357289.12842374-.86226526.35709247-.22869237.22866873-.3571752.53882418-.3571752.8622298.00052007.21000503.05527007.41632223.15893102.59895226h14.88041715c.10406283-.18252365.15919107-.38885267.16004211-.59895226 0-.67340612-.54591615-1.21931045-1.21932227-1.21932227-.15455765.00013002-.30767327.02964443-.45121473.08697118v-.0007092c.00002364-.32340561-.12841192-.63356107-.35708065-.86225344-.22866873-.22869237-.53882418-.3571752-.86221798-.35718703-.56515903.00061464-1.05582874.38950277-1.18549358.93959137-.2177471-.17857579-.49057515-.2762913-.7721736-.27655134-.28455346.00040187-.56002918.1003159-.7786746.2824495-.03947862-.64308796-.57244011-1.14447837-1.21672188-1.14464385-.55508843.00068556-1.0396354.3761817-1.17885076.91350474-.21694334-.17625907-.48785657-.27262711-.76737472-.2729699-.24219075.00033097-.47880248.07279907-.67964705.20813748-.11723025-.56545452-.61503921-.97112698-1.19249099-.97168252zm-5.68856309 9.79686995v-5.89336734h17.50037971v5.89336734c0 1.29602192-1.04334688 2.33935698-2.33935698 2.33935698H20.81215493c-1.2960101 0-2.33935698-1.04333506-2.33935698-2.33935698zm5.91980857-4.36368867h5.66073893v2.34330484c0 1.56798712-1.2624178 2.83006214-2.83042856 2.83006214-1.56801077 0-2.83031037-1.26207502-2.83031037-2.83006214v-2.34330484zm1.81840455 1.71174133c0-.55887081.45305864-1.01191763 1.01190582-1.01191763.55887081 0 1.01192945.45304682 1.01192945 1.01191763-.00087468.3933679-.22899969.75069677-.58579666.91632971l.34086368 1.54100218h-1.5338511l.34086367-1.54075396c-.35684425-.16564476-.58506382-.52316275-.58591486-.91657793z"/>
    <path fill="rgb(64,64,64)" fill-rule="evenodd" d="M18.42285156 46l9.1543274 9.1543274L36.73150635 46H18.42285156z"/>
  </g>
</svg>
