<svg xmlns="http://www.w3.org/2000/svg" width="38" height="38" viewBox="0 0 38 38">
  <g>
    <rect width="38" height="38" x="0" y="0" fill="none"/>
    <path fill="rgb(255,255,255)" fill-rule="evenodd" d="M19.21594238 10.00004578c-.26080322.00387573-.4691162.21836853-.46536255.4791565v2.89733886c-.00241088.17036438.08709717.32881164.23422242.41470337.14715576.08587646.32913208.08587646.47628784 0 .14712524-.08589173.2366333-.244339.23422241-.41470337v-2.89733887c.00183105-.12767029-.0480957-.25065613-.13839722-.34091186-.09030151-.090271-.21331787-.14013672-.3409729-.13824463zm-2.97894287.85040283c-.14996338-.003479-.29263305.06445312-.38446045.18302917-.0918579.11857605-.12191772.27371216-.08105468.41801453l.4500122 1.67915344c.0415039.16545105.16897583.29568482.33352661.3407135.16455078.04502869.34057618-.00215149.46054077-.12341308.1199646-.12127686.16525269-.29782105.11843873-.46185303l-.4499817-1.67915344c-.05203246-.20574951-.23486328-.3515625-.44702148-.3564911zm5.52484131.35684204c.0550232-.21774292.25576782-.36663818.48013306-.35612488.14401245.00671387.2770996.07884216.36135864.19586182.08425903.1170044.11044311.26608276.07113647.40481567l-.44998169 1.67913819c-.0415039.1654663-.16900634.29570007-.3335266.34072876-.16455079.04502868-.34057618-.0021515-.46054078-.12342835-.1199646-.12127686-.16525268-.29780579-.11843872-.46185303l.44985962-1.67913818zm-8.8763733.0439148c-.16659545.0064392-.31747436.10020446-.39700316.24674987-.07952881.14654541-.07592774.32415772.00949096.4673462l1.44863892 2.50924682c.08306885.1487732.23980713.24127197.41021728.24208069.17037964.00082397.32800293-.0901947.41247559-.23815918.08450317-.14796448.08276367-.32997131-.0045166-.47628784l-1.44863892-2.50926209c-.0866394-.15516662-.25308227-.24856567-.43066406-.24171448zm12.24435426.24197387c.084198-.1506958.24389648-.24346924.41653442-.24195862.16921997.00146485.32470703.09335327.40765381.24085999.08294678.14752197.08065796.328125-.00601196.47348022l-1.4486084 2.50924683c-.08435059.14624023-.24032593.23635864-.40914917.23638916-.16882324.00003052-.32485962-.09002686-.40924072-.23623657-.08441163-.14620972-.0843811-.32635498.00009155-.47253418l1.44873047-2.50924683zm2.50494384 2.16656494c.0855713-.08802795.20205689-.13929748.32476807-.14292907.19473267-.00576783.37304688.10861206.44900513.2880249.07595825.17941284.03399658.38705444-.10568237.52288818l-1.22927857 1.2292633c-.11846924.12345887-.2944336.17321778-.46002197.13008118-.16555786-.04315185-.29486084-.17245483-.3380127-.33802795-.04315185-.16557312.0065918-.34153748.13006592-.46000671l1.2291565-1.22929383zM10.4721985 13.5168152c-.19226075.0001068-.3652649.11668396-.43753052.29483032-.07226563.17814636-.02938843.38230896.10845947.51631164l1.2291565 1.22929383c.11871337.1223297.29412841.17123413.45898437.12794494.16488648-.04328918.29367065-.17204284.3369751-.3368988.04330444-.16487122-.0055542-.34028626-.12786865-.4590149l-1.22927857-1.22929382c-.08898926-.09155273-.21124267-.14320373-.3388977-.14317321zm5.68914795 1.52696228c-.5361023.00009155-1.00927735.3503418-1.16592408.86305236l-.01660156-.00076294c-.59957886.00074769-1.10961914.43725586-1.20297241 1.0295105-.23129273-.2762146-.5729065-.43597412-.9331665-.4364624-.3234253-.00003052-.63357544.12843323-.86227418.35710144-.22869873.22865295-.35717773.53881836-.35717773.86221314.0005188.2100067.05526733.4163208.15893555.5989685h14.88043213c.10406494-.1825409.15917968-.38885498.16003418-.5989685-.00003052-.67340088-.54592896-1.21929932-1.21932984-1.21931458-.15454101.00012207-.30767822.02964783-.4512024.0869751v-.00071717c0-.32339477-.12844848-.63356018-.35711669-.8622589-.22866821-.22868348-.53881836-.35717774-.86221313-.35717774-.56515503.00061035-1.05581666.3895111-1.18548584.93959045-.21774292-.1785736-.49057007-.27629089-.77215577-.27655029-.28457641.00041199-.56002807.10032654-.77868652.28244019-.03945923-.64308167-.57244873-1.14447022-1.21673584-1.14463807-.55505371.00068665-1.03961182.37617493-1.178833.91349793-.21694947-.17623901-.48785401-.27261353-.7673645-.27296448-.2421875.0003357-.47882081.07279968-.679657.20812988-.11724853-.56544494-.61502074-.9711151-1.19250487-.97166442zm-5.6885376 9.79684448v-5.89335632h17.50039673v5.89335632c0 1.29603576-1.04336548 2.33937073-2.33938599 2.33937073H12.81216431c-1.29602051 0-2.33935547-1.04333497-2.33935547-2.33937073zm5.9197998-4.36366272h5.66073609v2.3433075c0 1.56799316-1.26242066 2.83006286-2.83041382 2.83006286-1.56802368 0-2.83032227-1.2620697-2.83032227-2.83006287v-2.3433075zm1.8183899 1.71173096c0-.55886841.45306396-1.01191712 1.01190185-1.01191712.5588684 0 1.01193237.4530487 1.01193237 1.01191712-.000885.39337158-.2290039.7507019-.5857849.9163208l.34085082 1.54100036h-1.533844l.34085084-1.54074096c-.35684204-.16564942-.5850525-.52316285-.58590698-.9165802z"/>
  </g>
</svg>
